<svg width="120" height="58" viewBox="0 0 120 58" fill="none" xmlns="http://www.w3.org/2000/svg">
<path d="M55 15C55 23.2843 48.2843 30 40 30C31.7157 30 25 23.2843 25 15C25 6.71573 31.7157 0 40 0C48.2843 0 55 6.71573 55 15Z" fill="white"/>
<path d="M36 40C36 49.9411 27.9411 58 18 58C8.05887 58 0 49.9411 0 40C0 30.0589 8.05887 22 18 22C27.9411 22 36 30.0589 36 40Z" fill="#89CFF0"/>
<path d="M21.936 53V27.4H24.48V53H21.936ZM26.176 42.984V40.696H26.704C27.472 40.696 28.0107 40.5627 28.32 40.296C28.6293 40.0293 28.8 39.576 28.832 38.936C28.864 38.1147 28.8853 37.3253 28.896 36.568C28.9173 35.8 28.9173 35.0053 28.896 34.184C28.8853 33.352 28.864 32.44 28.832 31.448C28.8107 30.7973 28.64 30.344 28.32 30.088C28.0107 29.8213 27.4827 29.688 26.736 29.688H26.176V27.4H26.736C28.336 27.4 29.4933 27.72 30.208 28.36C30.9333 29 31.3173 30.0613 31.36 31.544C31.4133 32.9627 31.44 34.2373 31.44 35.368C31.44 36.4987 31.4133 37.6613 31.36 38.856C31.3067 40.328 30.9173 41.384 30.192 42.024C29.4667 42.664 28.304 42.984 26.704 42.984H26.176Z" fill="white"/>
<path d="M38.488 49.16V33.8H41.064L41.08 49.368C41.08 50.0507 41.2187 50.5413 41.496 50.84C41.784 51.1387 42.248 51.288 42.888 51.288C43.3253 51.288 43.7093 51.208 44.04 51.048V52.68C43.4747 53.0533 42.8133 53.24 42.056 53.24C40.8933 53.24 40.008 52.92 39.4 52.28C38.792 51.64 38.488 50.6 38.488 49.16ZM45.736 53V33.8H48.312V53H45.736Z" fill="white"/>
<path d="M54.504 49.192C54.472 48.3173 54.4507 47.3787 54.44 46.376C54.4293 45.3627 54.424 44.344 54.424 43.32C54.4347 42.2853 54.4453 41.2773 54.456 40.296C54.4667 39.3147 54.4827 38.4187 54.504 37.608C54.5467 36.136 54.872 35.096 55.48 34.488C56.0987 33.8693 56.968 33.56 58.088 33.56C58.5147 33.56 58.888 33.6027 59.208 33.688C59.528 33.7733 59.816 33.9067 60.072 34.088V35.72C59.7413 35.5707 59.3627 35.496 58.936 35.496C58.2853 35.496 57.8213 35.6453 57.544 35.944C57.2667 36.232 57.1173 36.7067 57.096 37.368C57.0427 38.6907 57.0053 40.0667 56.984 41.496C56.9733 42.9253 56.9733 44.312 56.984 45.656C57.0053 47 57.032 48.2107 57.064 49.288C57.0853 50.0347 57.2453 50.5573 57.544 50.856C57.8427 51.144 58.3013 51.288 58.92 51.288C59.368 51.288 59.752 51.2187 60.072 51.08V52.68C59.8053 52.8613 59.5067 53 59.176 53.096C58.8453 53.192 58.4613 53.24 58.024 53.24C56.8507 53.24 55.9813 52.9253 55.416 52.296C54.8613 51.656 54.5573 50.6213 54.504 49.192ZM61.736 53V27.4H64.328V53H61.736Z" fill="white"/>
<path d="M69.504 49.064C69.4827 48.296 69.4613 47.4373 69.44 46.488C69.4293 45.528 69.424 44.536 69.424 43.512C69.424 42.488 69.4293 41.4853 69.44 40.504C69.4507 39.512 69.472 38.6 69.504 37.768C69.568 36.4027 69.9093 35.3947 70.528 34.744C71.1467 34.0827 72.1227 33.6987 73.456 33.592V35.624C72.9653 35.72 72.6133 35.9227 72.4 36.232C72.1973 36.5307 72.0907 36.936 72.08 37.448C72.048 38.4293 72.0267 39.4107 72.016 40.392C72.0053 41.3627 72 42.3387 72 43.32C72 44.2907 72.0053 45.2773 72.016 46.28C72.0267 47.272 72.048 48.2853 72.08 49.32C72.0907 49.896 72.208 50.328 72.432 50.616C72.656 50.904 72.9973 51.0907 73.456 51.176V53.208C72.0907 53.1013 71.104 52.7227 70.496 52.072C69.8987 51.4107 69.568 50.408 69.504 49.064ZM75.168 53.208V51.176C75.6053 51.08 75.92 50.888 76.112 50.6C76.3147 50.3013 76.4267 49.8693 76.448 49.304C76.4693 48.984 76.48 48.552 76.48 48.008C76.48 47.464 76.464 46.888 76.432 46.28H78.944C78.976 46.6427 78.992 47.112 78.992 47.688C79.0027 48.264 78.9973 48.7227 78.976 49.064C78.912 50.408 78.592 51.4107 78.016 52.072C77.44 52.7333 76.4907 53.112 75.168 53.208ZM73.504 43.912V42.056H76.464C76.4853 41.4373 76.496 40.8133 76.496 40.184C76.496 39.544 76.4907 38.9787 76.48 38.488C76.48 37.9973 76.4693 37.6507 76.448 37.448C76.4267 36.8933 76.3093 36.4773 76.096 36.2C75.8827 35.912 75.5733 35.72 75.168 35.624V33.592C76.48 33.6987 77.4293 34.0827 78.016 34.744C78.6027 35.4053 78.9227 36.3867 78.976 37.688C78.9867 37.9227 78.9973 38.3867 79.008 39.08C79.0187 39.7733 79.0187 40.5573 79.008 41.432C79.008 42.296 78.9867 43.1227 78.944 43.912H73.504Z" fill="white"/>
<path d="M85.776 53V27.4H88.32V53H85.776Z" fill="white"/>
<path d="M95.776 53V42.248H98.528L100.224 37.864L102.08 33.8H104.752L98.256 47.368V53H95.776ZM95.776 41.032V27.4H98.208V36.136L97.872 41.032H95.776ZM100.208 46.088L101.776 43.4L105.6 53H102.912L100.208 46.088Z" fill="white"/>
<path d="M109.52 48.744C109.488 48.0933 109.461 47.3253 109.44 46.44C109.429 45.544 109.424 44.6053 109.424 43.624C109.424 42.6427 109.429 41.672 109.44 40.712C109.461 39.7413 109.488 38.8613 109.52 38.072C109.595 36.5787 109.925 35.4853 110.512 34.792C111.109 34.088 112.112 33.688 113.52 33.592V35.624C112.997 35.72 112.624 35.9227 112.4 36.232C112.187 36.5307 112.069 36.9733 112.048 37.56C112.016 38.4133 111.989 39.3147 111.968 40.264C111.947 41.2133 111.936 42.1893 111.936 43.192C111.936 44.1947 111.941 45.208 111.952 46.232C111.973 47.2453 112.005 48.2427 112.048 49.224C112.069 49.8107 112.192 50.264 112.416 50.584C112.64 50.8933 113.008 51.096 113.52 51.192V53.208C112.112 53.1013 111.104 52.696 110.496 51.992C109.899 51.288 109.573 50.2053 109.52 48.744ZM115.216 53.208V51.192C115.728 51.0853 116.091 50.8773 116.304 50.568C116.517 50.2587 116.635 49.8267 116.656 49.272C116.688 48.3013 116.715 47.336 116.736 46.376C116.757 45.4053 116.768 44.4347 116.768 43.464C116.779 42.4827 116.773 41.496 116.752 40.504C116.731 39.512 116.699 38.5147 116.656 37.512C116.635 36.936 116.512 36.4987 116.288 36.2C116.075 35.9013 115.717 35.704 115.216 35.608V33.592C116.165 33.656 116.923 33.8587 117.488 34.2C118.053 34.5307 118.469 35.016 118.736 35.656C119.003 36.2853 119.157 37.0907 119.2 38.072C119.232 38.7973 119.253 39.608 119.264 40.504C119.285 41.4 119.296 42.328 119.296 43.288C119.296 44.2373 119.285 45.1813 119.264 46.12C119.253 47.0587 119.232 47.9333 119.2 48.744C119.147 49.7253 118.987 50.5307 118.72 51.16C118.464 51.7893 118.053 52.2747 117.488 52.616C116.923 52.9467 116.165 53.144 115.216 53.208Z" fill="white"/>
<path d="M6.936 53V40.936H10.168L12.472 32.888L14.248 27.4H16.984L9.512 48.504V53H6.936ZM14.776 53L12.36 44.76L13.832 40.952L17.384 53H14.776ZM6.936 39.4V27.4H9.592V32.888L9.336 39.4H6.936Z" fill="white"/>
</svg>
